<svg width="20" height="20" viewBox="0 0 20 20" fill="none" xmlns="http://www.w3.org/2000/svg">
<g id="right" clip-path="url(#clip0_142_6984)">
<g id="Group">
<path id="Vector" fill-rule="evenodd" clip-rule="evenodd" d="M13.0892 9.41096C13.2454 9.56723 13.3332 9.77915 13.3332 10.0001C13.3332 10.2211 13.2454 10.433 13.0892 10.5893L8.375 15.3035C8.29813 15.383 8.20617 15.4465 8.1045 15.4902C8.00283 15.5339 7.89348 15.5569 7.78284 15.5578C7.67219 15.5588 7.56245 15.5377 7.46004 15.4958C7.35763 15.4539 7.26458 15.392 7.18634 15.3138C7.10809 15.2355 7.04622 15.1425 7.00432 15.0401C6.96242 14.9377 6.94133 14.8279 6.94229 14.7173C6.94325 14.6066 6.96624 14.4973 7.00992 14.3956C7.05359 14.2939 7.11708 14.202 7.19667 14.1251L11.3217 10.0001L7.19667 5.87512C7.04487 5.71795 6.96087 5.50745 6.96277 5.28895C6.96467 5.07046 7.05231 4.86145 7.20682 4.70694C7.36132 4.55243 7.57034 4.46479 7.78883 4.46289C8.00733 4.46099 8.21783 4.54499 8.375 4.69679L13.0892 9.41096Z" fill="#47525A"/>
</g>
</g>
<defs>
<clipPath id="clip0_142_6984">
<rect width="20" height="20" fill="white" transform="translate(0 20) rotate(-90)"/>
</clipPath>
</defs>
</svg>
