<svg width="18" height="19" viewBox="0 0 18 19" fill="none" xmlns="http://www.w3.org/2000/svg">
<path d="M7.7976 0.86559C8.12798 0.568751 8.55645 0.404541 9.0006 0.404541C9.44475 0.404541 9.87321 0.568751 10.2036 0.86559L16.8036 6.79599C16.9913 6.96474 17.1413 7.17107 17.2441 7.40158C17.3468 7.63208 17.3999 7.88162 17.4 8.13399V16.6C17.4 17.0774 17.2104 17.5352 16.8728 17.8728C16.5352 18.2104 16.0774 18.4 15.6 18.4H12.6C12.1226 18.4 11.6648 18.2104 11.3272 17.8728C10.9896 17.5352 10.8 17.0774 10.8 16.6V12.4C10.8 12.2409 10.7368 12.0882 10.6243 11.9757C10.5117 11.8632 10.3591 11.8 10.2 11.8H7.8C7.64087 11.8 7.48826 11.8632 7.37573 11.9757C7.26321 12.0882 7.2 12.2409 7.2 12.4V16.6C7.2 17.0774 7.01036 17.5352 6.67279 17.8728C6.33523 18.2104 5.87739 18.4 5.4 18.4H2.4C1.92261 18.4 1.46477 18.2104 1.12721 17.8728C0.789641 17.5352 0.599998 17.0774 0.599998 16.6V8.13399C0.599998 7.62399 0.815998 7.13799 1.1976 6.79599L7.7976 0.86559ZM9.4008 1.75839C9.2907 1.65955 9.14796 1.60489 9 1.60489C8.85204 1.60489 8.7093 1.65955 8.5992 1.75839L1.9992 7.68879C1.93667 7.74492 1.88664 7.81355 1.85232 7.89024C1.81801 7.96693 1.80018 8.04997 1.8 8.13399V16.6C1.8 16.7591 1.86321 16.9117 1.97573 17.0243C2.08826 17.1368 2.24087 17.2 2.4 17.2H5.4C5.55913 17.2 5.71174 17.1368 5.82426 17.0243C5.93678 16.9117 6 16.7591 6 16.6V12.4C6 11.9226 6.18964 11.4648 6.52721 11.1272C6.86477 10.7896 7.32261 10.6 7.8 10.6H10.2C10.6774 10.6 11.1352 10.7896 11.4728 11.1272C11.8104 11.4648 12 11.9226 12 12.4V16.6C12 16.7591 12.0632 16.9117 12.1757 17.0243C12.2883 17.1368 12.4409 17.2 12.6 17.2H15.6C15.7591 17.2 15.9117 17.1368 16.0243 17.0243C16.1368 16.9117 16.2 16.7591 16.2 16.6V8.13399C16.1998 8.04997 16.182 7.96693 16.1477 7.89024C16.1134 7.81355 16.0633 7.74492 16.0008 7.68879L9.4008 1.75839Z" fill="#FF7000"/>
</svg>
