<svg width="16" height="15" viewBox="0 0 16 15" fill="none" xmlns="http://www.w3.org/2000/svg">
<path d="M15.0555 13.3145L11.7477 10.0066C12.544 8.94645 12.9739 7.65598 12.9725 6.33C12.9725 2.94305 10.217 0.1875 6.83 0.1875C3.44305 0.1875 0.6875 2.94305 0.6875 6.33C0.6875 9.71695 3.44305 12.4725 6.83 12.4725C8.15598 12.4739 9.44645 12.044 10.5066 11.2477L13.8145 14.5555C13.9819 14.7052 14.2003 14.7851 14.4248 14.7788C14.6493 14.7725 14.8629 14.6805 15.0217 14.5217C15.1805 14.3629 15.2725 14.1493 15.2788 13.9248C15.2851 13.7003 15.2052 13.4819 15.0555 13.3145ZM2.4425 6.33C2.4425 5.46223 2.69982 4.61396 3.18193 3.89244C3.66403 3.17092 4.34927 2.60856 5.15098 2.27648C5.95269 1.9444 6.83487 1.85751 7.68596 2.0268C8.53705 2.1961 9.31883 2.61397 9.93243 3.22757C10.546 3.84117 10.9639 4.62295 11.1332 5.47404C11.3025 6.32513 11.2156 7.20731 10.8835 8.00902C10.5514 8.81073 9.98909 9.49597 9.26756 9.97807C8.54604 10.4602 7.69777 10.7175 6.83 10.7175C5.66679 10.7161 4.55162 10.2534 3.72911 9.43089C2.9066 8.60838 2.4439 7.49321 2.4425 6.33Z" fill="#FF7000"/>
</svg>
