<svg width="18" height="18" viewBox="0 0 18 18" fill="none" xmlns="http://www.w3.org/2000/svg">
<path d="M5.31818 1.43182C5.31818 0.641455 5.95964 0 6.75 0H11.25C12.0404 0 12.6818 0.641455 12.6818 1.43182V3.27273H16.5682C17.3585 3.27273 18 3.91418 18 4.70455V16.5682C18 16.9479 17.8491 17.3121 17.5806 17.5806C17.3121 17.8491 16.9479 18 16.5682 18H1.43182C1.05208 18 0.687888 17.8491 0.41937 17.5806C0.150852 17.3121 0 16.9479 0 16.5682V4.70455C0 3.91418 0.641455 3.27273 1.43182 3.27273H5.31818V1.43182ZM1.22727 9.81V16.5682C1.22727 16.6811 1.31891 16.7727 1.43182 16.7727H16.5682C16.6224 16.7727 16.6745 16.7512 16.7128 16.7128C16.7512 16.6745 16.7727 16.6224 16.7727 16.5682V9.81C16.1449 10.3444 15.3472 10.6374 14.5227 10.6364H3.47727C2.65285 10.6374 1.85508 10.3444 1.22727 9.81ZM16.7727 7.15909V4.70455C16.7727 4.6503 16.7512 4.59827 16.7128 4.55991C16.6745 4.52155 16.6224 4.5 16.5682 4.5H1.43182C1.37757 4.5 1.32554 4.52155 1.28718 4.55991C1.24882 4.59827 1.22727 4.6503 1.22727 4.70455V7.15909C1.22727 7.75583 1.46433 8.32812 1.88628 8.75008C2.30824 9.17204 2.88054 9.40909 3.47727 9.40909H14.5227C15.1195 9.40909 15.6918 9.17204 16.1137 8.75008C16.5357 8.32812 16.7727 7.75583 16.7727 7.15909ZM11.4545 1.43182C11.4545 1.37757 11.433 1.32554 11.3946 1.28718C11.3563 1.24882 11.3042 1.22727 11.25 1.22727H6.75C6.69575 1.22727 6.64372 1.24882 6.60536 1.28718C6.567 1.32554 6.54545 1.37757 6.54545 1.43182V3.27273H11.4545V1.43182Z" fill="#FF7000"/>
</svg>
